<svg xmlns="http://www.w3.org/2000/svg" xmlns:xlink="http://www.w3.org/1999/xlink" viewBox="0 0 1365 660"><defs><style>.cls-1{fill:url(#未命名的渐变_23);}</style><linearGradient id="未命名的渐变_23" x1="1064.72" y1="108.34" x2="80.21" y2="678.77" gradientUnits="userSpaceOnUse"><stop offset="0" stop-color="#2aa9ff"/><stop offset="0.02" stop-color="#3fa9f5"/><stop offset="1" stop-color="#03ffec"/></linearGradient></defs><title>bg</title><g id="图层_2" data-name="图层 2"><g id="图层_1-2" data-name="图层 1"><path class="cls-1" d="M209.14,653.8c5.45,2.42,11,5.06,17.12,5.41,7.81.45,15.16-2.91,22.2-5.91,74.69-31.95,165.69-33,241.31-2.75,9.1,3.64,18.53,7.81,28.52,7.24,7.49-.43,14.39-3.49,21.2-6.26,74.53-30.37,164.14-30.81,239.06-1.18,6.9,2.73,13.89,5.75,21.45,6.21,10.41.63,20.26-3.65,29.8-7.36,74.67-29,164.09-27.15,237.09,5,6.53,2.87,13.33,6.06,20.63,5.81,6.31-.22,12.09-3,17.71-5.51A299.22,299.22,0,0,1,1231,628.25a317.16,317.16,0,0,1,134,31.35V227.79s-4-115.65-332.76-115.65S675.51,0,675.51,0H0V640.74C66,621.54,140,623.14,209.14,653.8Z"/></g></g></svg>